<svg width="76" height="68" viewBox="0 0 76 68" fill="none" xmlns="http://www.w3.org/2000/svg">
<path d="M18.525 48.45C21.2166 46.6083 24.225 45.1562 27.55 44.0937C30.875 43.0312 34.3583 42.5 38 42.5C41.6416 42.5 45.125 43.0312 48.45 44.0937C51.775 45.1562 54.7833 46.6083 57.475 48.45C59.3222 46.5139 60.7604 44.318 61.7896 41.8625C62.8187 39.4069 63.3333 36.7861 63.3333 34C63.3333 27.7194 60.866 22.3715 55.9312 17.9562C50.9965 13.541 45.0194 11.3333 38 11.3333C30.9805 11.3333 25.0035 13.541 20.0687 17.9562C15.134 22.3715 12.6666 27.7194 12.6666 34C12.6666 36.7861 13.1812 39.4069 14.2104 41.8625C15.2396 44.318 16.6778 46.5139 18.525 48.45ZM38 36.8333C34.8861 36.8333 32.2604 35.8771 30.1229 33.9646C27.9854 32.0521 26.9166 29.7028 26.9166 26.9167C26.9166 24.1305 27.9854 21.7812 30.1229 19.8687C32.2604 17.9562 34.8861 17 38 17C41.1139 17 43.7396 17.9562 45.8771 19.8687C48.0146 21.7812 49.0833 24.1305 49.0833 26.9167C49.0833 29.7028 48.0146 32.0521 45.8771 33.9646C43.7396 35.8771 41.1139 36.8333 38 36.8333ZM38 62.3333C33.6194 62.3333 29.5028 61.5896 25.65 60.1021C21.7972 58.6146 18.4458 56.5958 15.5958 54.0458C12.7458 51.4958 10.4896 48.4972 8.82706 45.05C7.16456 41.6028 6.33331 37.9194 6.33331 34C6.33331 30.0805 7.16456 26.3972 8.82706 22.95C10.4896 19.5028 12.7458 16.5042 15.5958 13.9542C18.4458 11.4042 21.7972 9.38541 25.65 7.89791C29.5028 6.41041 33.6194 5.66666 38 5.66666C42.3805 5.66666 46.4972 6.41041 50.35 7.89791C54.2028 9.38541 57.5541 11.4042 60.4041 13.9542C63.2541 16.5042 65.5104 19.5028 67.1729 22.95C68.8354 26.3972 69.6666 30.0805 69.6666 34C69.6666 37.9194 68.8354 41.6028 67.1729 45.05C65.5104 48.4972 63.2541 51.4958 60.4041 54.0458C57.5541 56.5958 54.2028 58.6146 50.35 60.1021C46.4972 61.5896 42.3805 62.3333 38 62.3333Z" fill="#1D1B20"/>
</svg>
