<svg width="88" height="87" viewBox="0 0 88 87" fill="none" xmlns="http://www.w3.org/2000/svg">
<path d="M3.66669 3.625H18.3334L28.16 52.1638C28.4953 53.8327 29.4137 55.3319 30.7544 56.3988C32.095 57.4658 33.7726 58.0326 35.4934 58H71.1334C72.8541 58.0326 74.5317 57.4658 75.8724 56.3988C77.213 55.3319 78.1314 53.8327 78.4667 52.1638L84.3334 21.75H22M36.6667 76.125C36.6667 78.127 35.0251 79.75 33 79.75C30.975 79.75 29.3334 78.127 29.3334 76.125C29.3334 74.123 30.975 72.5 33 72.5C35.0251 72.5 36.6667 74.123 36.6667 76.125ZM77 76.125C77 78.127 75.3584 79.75 73.3334 79.75C71.3083 79.75 69.6667 78.127 69.6667 76.125C69.6667 74.123 71.3083 72.5 73.3334 72.5C75.3584 72.5 77 74.123 77 76.125Z" stroke="#1E1E1E" stroke-width="4" stroke-linecap="round" stroke-linejoin="round"/>
</svg>
