<svg width="76" height="68" viewBox="0 0 76 68" fill="none" xmlns="http://www.w3.org/2000/svg">
<path d="M62.0667 59.5L42.1167 41.65C40.5333 42.7833 38.7125 43.6806 36.6542 44.3417C34.5958 45.0028 32.4056 45.3333 30.0833 45.3333C24.3306 45.3333 19.4618 43.5507 15.4771 39.9854C11.4924 36.4201 9.5 32.0639 9.5 26.9167C9.5 21.7694 11.4924 17.4132 15.4771 13.8479C19.4618 10.2826 24.3306 8.5 30.0833 8.5C35.8361 8.5 40.7049 10.2826 44.6896 13.8479C48.6743 17.4132 50.6667 21.7694 50.6667 26.9167C50.6667 28.9944 50.2972 30.9542 49.5583 32.7958C48.8194 34.6375 47.8167 36.2667 46.55 37.6833L66.5 55.5333L62.0667 59.5ZM30.0833 39.6667C34.0417 39.6667 37.4063 38.4271 40.1771 35.9479C42.9479 33.4687 44.3333 30.4583 44.3333 26.9167C44.3333 23.375 42.9479 20.3646 40.1771 17.8854C37.4063 15.4062 34.0417 14.1667 30.0833 14.1667C26.125 14.1667 22.7604 15.4062 19.9896 17.8854C17.2188 20.3646 15.8333 23.375 15.8333 26.9167C15.8333 30.4583 17.2188 33.4687 19.9896 35.9479C22.7604 38.4271 26.125 39.6667 30.0833 39.6667Z" fill="#1D1B20"/>
</svg>
